<svg xmlns="http://www.w3.org/2000/svg" viewBox="0 0 24 24" class="design-iconfont">
  <defs>
    <clipPath id="67vfgft99__wu9sj2ixaa">
      <rect width="24" height="24" rx="0"/>
    </clipPath>
  </defs>
  <g clip-path="url(#67vfgft99__wu9sj2ixaa)">
    <path d="M20.43657412109375,11.10937C20.43657412109375,11.10937,6.72331412109375,11.10937,6.72331412109375,11.10937C6.72331412109375,11.10937,14.93107412109375,3.984375,14.93107412109375,3.984375C15.06237412109375,3.869531,14.98267412109375,3.65625,14.80927412109375,3.65625C14.80927412109375,3.65625,12.73502412109375,3.65625,12.73502412109375,3.65625C12.64362412109375,3.65625,12.55690412109375,3.6890624,12.48893412109375,3.7476561C12.48893412109375,3.7476561,3.63190312109375,11.43281,3.63190312109375,11.43281C3.55078312109375,11.503129999999999,3.48572512109375,11.590060000000001,3.44113772109375,11.68772C3.39654992109375,11.78537,3.373474121093749,11.89147,3.37347412109375,11.99883C3.373474121093749,12.10618,3.39654992109375,12.21228,3.44113772109375,12.30994C3.48572512109375,12.4076,3.55078312109375,12.49453,3.63190312109375,12.56484C3.63190312109375,12.56484,12.54049412109375,20.29685,12.54049412109375,20.29685C12.57565412109375,20.32735,12.61784412109375,20.34375,12.66237412109375,20.34375C12.66237412109375,20.34375,14.80687412109375,20.34375,14.80687412109375,20.34375C14.98037412109375,20.34375,15.06007412109375,20.12815,14.92877412109375,20.01565C14.92877412109375,20.01565,6.72331412109375,12.89063,6.72331412109375,12.89063C6.72331412109375,12.89063,20.43657412109375,12.89063,20.43657412109375,12.89063C20.53967412109375,12.89063,20.62407412109375,12.80625,20.62407412109375,12.70313C20.62407412109375,12.70313,20.62407412109375,11.29687,20.62407412109375,11.29687C20.62407412109375,11.19375,20.53967412109375,11.10937,20.43657412109375,11.10937Z"/>
  </g>
</svg>
